<svg width="462" height="111" viewBox="0 0 462 111" fill="none" xmlns="http://www.w3.org/2000/svg">
<path d="M138.689 103.071H124.424L99.0633 77.6994C103.977 71.5152 106.83 63.904 106.83 55.5C106.83 35.8369 90.8218 19.8214 71.1674 19.8214C62.7668 19.8214 54.9999 22.6751 48.9777 27.5917L29.3233 7.92857H35.6628C37.8817 7.92857 39.6253 6.18423 39.6253 3.96429C39.6253 1.74434 37.8817 0 35.6628 0H3.96253C1.74357 0 0 1.74434 0 3.96429C0 6.18423 1.74357 7.92857 3.96253 7.92857H18.2271L43.5878 33.3006C38.6746 39.4849 35.821 47.096 35.821 55.5C35.821 75.1631 51.8293 91.1786 71.4838 91.1786C79.8844 91.1786 87.6512 88.3249 93.6734 83.4083L113.328 103.071H106.988C104.769 103.071 103.026 104.816 103.026 107.036C103.026 109.256 104.769 111 106.988 111H138.689C140.908 111 142.651 109.256 142.651 107.036C142.651 104.816 140.908 103.071 138.689 103.071ZM71.3256 83.25C56.1089 83.25 43.5878 70.7234 43.5878 55.5C43.5878 40.2766 56.1089 27.75 71.3256 27.75C86.5423 27.75 99.0633 40.2766 99.0633 55.5C99.0633 61.6843 97.0024 67.3929 93.5152 72.1503L74.178 52.6463C72.5926 51.0601 70.0573 51.0601 68.6299 52.6463C67.0445 54.2324 67.0445 56.7689 68.6299 58.1968L87.9682 77.6997C83.2129 81.1883 77.5068 83.2503 71.3253 83.2503L71.3256 83.25Z" fill="#D89E48"/>
<path d="M194.456 89.488C192.6 90.704 189.944 91.92 186.488 93.136C183.096 94.352 179 94.96 174.2 94.96C169.016 94.96 164.632 93.872 161.048 91.696C157.528 89.456 154.84 86.352 152.984 82.384C151.192 78.352 150.296 73.712 150.296 68.464V54.16C150.296 45.968 152.344 39.536 156.44 34.864C160.6 30.128 166.616 27.76 174.488 27.76C177.368 27.76 180.376 28.08 183.512 28.72C186.712 29.36 189.88 30.416 193.016 31.888L190.328 39.088C184.568 36.72 179.32 35.536 174.584 35.536C169.336 35.536 165.4 37.136 162.776 40.336C160.216 43.472 158.936 48.08 158.936 54.16V68.464C158.936 74.224 160.248 78.8 162.872 82.192C165.496 85.584 169.464 87.28 174.776 87.28C176.824 87.28 178.904 87.056 181.016 86.608C183.192 86.16 185.112 85.552 186.776 84.784V67.216H174.584V59.824H194.456V89.488ZM247.018 67.312V73.072C247.018 79.856 245.258 85.2 241.738 89.104C238.282 93.008 233.322 94.96 226.858 94.96C220.458 94.96 215.498 93.008 211.978 89.104C208.458 85.2 206.698 79.856 206.698 73.072V67.312C206.698 60.656 208.426 55.376 211.882 51.472C215.402 47.504 220.394 45.52 226.858 45.52C233.322 45.52 238.282 47.504 241.738 51.472C245.258 55.376 247.018 60.656 247.018 67.312ZM238.858 67.312C238.858 62.768 237.834 59.216 235.786 56.656C233.738 54.032 230.762 52.72 226.858 52.72C223.018 52.72 220.042 54.032 217.93 56.656C215.882 59.216 214.858 62.768 214.858 67.312V73.072C214.858 77.808 215.882 81.456 217.93 84.016C220.042 86.576 223.018 87.856 226.858 87.856C230.762 87.856 233.738 86.576 235.786 84.016C237.834 81.456 238.858 77.808 238.858 73.072V67.312ZM263.051 94V28.72H282.251C288.523 28.72 293.131 30.256 296.075 33.328C299.083 36.336 300.587 40.4 300.587 45.52V47.632C300.587 50.448 299.947 52.944 298.667 55.12C297.387 57.296 295.531 59.024 293.099 60.304C296.491 61.392 299.051 63.184 300.779 65.68C302.571 68.112 303.467 71.056 303.467 74.512V76.624C303.467 81.872 301.931 86.096 298.859 89.296C295.851 92.432 291.115 94 284.651 94H263.051ZM282.251 36.4H271.403V57.04H282.251C285.451 57.04 287.851 56.24 289.451 54.64C291.115 52.976 291.947 50.704 291.947 47.824V45.52C291.947 42.704 291.115 40.496 289.451 38.896C287.851 37.232 285.451 36.4 282.251 36.4ZM284.651 64.72H271.403V86.416H284.651C288.043 86.416 290.571 85.552 292.235 83.824C293.963 82.096 294.827 79.696 294.827 76.624V74.32C294.827 71.376 293.963 69.04 292.235 67.312C290.571 65.584 288.043 64.72 284.651 64.72ZM325.831 34.864H316.999V26.032H325.831V34.864ZM325.351 94H317.479V46.48H325.351V94ZM371.603 94L358.259 72.016C357.043 73.232 355.763 74.48 354.419 75.76C353.075 77.04 351.667 78.32 350.195 79.6V94H342.323V22.96H350.195V70.768C354.355 66.736 358.035 62.8 361.235 58.96C364.499 55.12 367.475 50.96 370.163 46.48H379.187C376.883 50.32 374.515 53.872 372.083 57.136C369.715 60.336 367.027 63.6 364.019 66.928L381.107 94H371.603ZM424.412 91.216C421.532 92.624 418.652 93.584 415.772 94.096C412.892 94.672 410.236 94.96 407.804 94.96C400.956 94.96 395.836 93.008 392.444 89.104C389.116 85.2 387.452 79.856 387.452 73.072V67.312C387.452 60.72 389.116 55.44 392.444 51.472C395.836 47.504 400.604 45.52 406.748 45.52C410.012 45.52 412.988 46.192 415.676 47.536C418.428 48.816 420.604 50.8 422.204 53.488C423.868 56.112 424.7 59.504 424.7 63.664C424.7 66.352 424.316 69.424 423.548 72.88H395.228V73.072C395.228 77.936 396.22 81.616 398.204 84.112C400.252 86.608 403.516 87.856 407.996 87.856C410.044 87.856 412.284 87.6 414.716 87.088C417.212 86.576 419.644 85.776 422.012 84.688L424.412 91.216ZM406.748 52.432C403.036 52.432 400.22 53.648 398.3 56.08C396.444 58.448 395.42 61.808 395.228 66.16H416.732C416.924 65.008 417.02 63.92 417.02 62.896C417.02 59.312 415.996 56.688 413.948 55.024C411.964 53.296 409.564 52.432 406.748 52.432Z" fill="#448847"/>
</svg>
